Coordinates
version=1
nRows=12
nColumns=42
inDegrees=yes

Units are S.I. units (second, meters, Newtons, ...)
If the header above contains a line with 'inDegrees', this indicates whether rotational values are in degrees (yes) or radians (no).

endheader
time	pelvis_tilt	pelvis_list	pelvis_rotation	pelvis_tx	pelvis_ty	pelvis_tz	hip_flexion_r	hip_adduction_r	hip_rotation_r	knee_angle_r	knee_adduction_r	knee_angle_r_beta	ankle_angle_r	subtalar_angle_r	mtp_angle_r	hip_flexion_l	hip_adduction_l	hip_rotation_l	knee_angle_l	knee_adduction_l	knee_angle_l_beta	ankle_angle_l	subtalar_angle_l	mtp_angle_l	lumbar_extension	lumbar_bending	lumbar_rotation	arm_flex_r	arm_add_r	arm_rot_r	elbow_flex_r	pro_sup_r	wrist_flex_r	wrist_dev_r	arm_flex_l	arm_add_l	arm_rot_l	elbow_flex_l	pro_sup_l	wrist_flex_l	wrist_dev_l
      2.43000000	      9.51125209	     -1.51640073	      1.08731234	      0.06409341	      0.90773857	      0.24814999	    -11.34935990	      1.98350703	     -8.33160160	     17.47583464	      9.25035553	      0.30501085	     21.14979868	     16.35692162	     -7.51008098	     20.76491941	     -0.63951182	    -12.45831098	     31.88765865	     -3.17479272	      0.55654463	     11.79201850	      3.23460778	     -7.51008098	    -21.59750077	      7.26659428	     -1.33964654	     18.45166268	    -13.78005626	     -5.02321543	     33.14963627	     90.00000001	      0.00000000	      0.00000000	     -6.85555014	     -5.22868653	    -28.86235558	     39.47348563	     90.00000001	      0.00000000	      0.00000000
      2.44000000	      9.69874674	     -1.36797972	      1.11107381	      0.07144510	      0.90729778	      0.24759201	    -12.45073121	      1.65508994	     -8.23666437	     16.87488508	      9.63079092	      0.29452231	     21.23685154	     16.61443472	     -7.50940753	     20.59550047	     -0.28070958	    -13.63300419	     29.70756213	     -3.58590335	      0.51849477	     12.02746149	      5.79330929	     -7.50940753	    -21.77889420	      7.17400671	     -1.43863530	     18.70499459	    -13.82670875	     -4.30803502	     33.55582395	     90.00000001	      0.00000000	      0.00000000	     -6.96140713	     -5.16402948	    -28.96335790	     39.24900734	     90.00000001	      0.00000000	      0.00000000
      2.45000000	      9.73791066	     -1.28774371	      1.22592944	      0.07852835	      0.90650140	      0.24689043	    -13.26269599	      1.48346836	     -8.04066122	     16.44971893	      9.89775361	      0.28710176	     21.43980334	     16.58556902	     -7.50903414	     20.63970014	      0.07827011	    -14.14389023	     27.77635200	     -3.73260081	      0.48478880	     11.98125551	      7.18913322	     -7.50903414	    -21.81712532	      7.18066462	     -1.57801985	     18.96309729	    -13.81773509	     -3.93559213	     33.91653082	     90.00000001	      0.00000000	      0.00000000	     -6.98865074	     -5.11329103	    -29.02524910	     38.89761843	     90.00000001	      0.00000000	      0.00000000
      2.46000000	      9.65878709	     -1.30288083	      1.38944415	      0.08556261	      0.90534611	      0.24615593	    -13.84799200	      1.49423043	     -7.81666895	     16.16966382	     10.02213123	      0.28221387	     21.84079591	     16.46725380	     -7.50885677	     20.89402299	      0.31580088	    -14.36353552	     26.20565145	     -3.72458723	      0.45737490	     11.89951607	      8.28633043	     -7.50885677	    -21.71101197	      7.30181670	     -1.72290816	     19.18781038	    -13.79446412	     -3.66284276	     34.25824983	     90.00000001	      0.00000000	      0.00000000	     -6.99349959	     -5.07288474	    -29.04953955	     38.45625054	     90.00000001	      0.00000000	      0.00000000
      2.47000000	      9.76512632	     -1.19927598	      1.39703583	      0.09290627	      0.90449996	      0.24554735	    -14.71334728	      1.32048212	     -7.30800244	     15.73888115	     10.25983461	      0.27469530	     21.81773838	     16.00842676	     -7.50845876	     20.93173652	      0.63168821	    -15.51958125	     24.81738549	     -4.07444258	      0.43314509	     12.03840545	     10.61694269	     -7.50845876	    -21.82455546	      7.23395266	     -1.76838348	     19.30209983	    -13.87966721	     -3.05875419	     34.75417703	     90.00000001	      0.00000000	      0.00000000	     -7.04606276	     -4.97860129	    -29.19892597	     38.20091676	     90.00000001	      0.00000000	      0.00000000
      2.48000000	      9.59329716	     -1.35577577	      1.59876750	      0.09990631	      0.90287202	      0.24476179	    -14.97051080	      1.48545606	     -7.22967728	     15.91887532	     10.32474129	      0.27783679	     21.93556810	     15.90139306	     -7.50838128	     21.59252768	      0.56077276	    -15.75950526	     24.31988617	     -3.84285085	      0.42446209	     11.99619101	     10.71703702	     -7.50838128	    -21.63804931	      7.51028710	     -1.94089764	     19.48833806	    -13.80781424	     -3.01274402	     35.04683716	     90.00000001	      0.00000000	      0.00000000	     -7.18789346	     -4.89927054	    -29.14654420	     38.04876900	     90.00000001	      0.00000000	      0.00000000
      2.49000000	      9.59452632	     -1.32303142	      1.73618221	      0.10721830	      0.90171324	      0.24397989	    -15.71306146	      1.53749053	     -6.64706022	     15.45800075	     10.34396037	      0.26979301	     22.75836254	     15.56361742	     -7.50828975	     21.65875997	      0.99154195	    -15.87582959	     23.18839371	     -4.03506530	      0.40471382	     11.77975121	     12.22730989	     -7.50828975	    -21.59935783	      7.54798870	     -2.03294509	     19.53528885	    -13.82536088	     -2.70921528	     35.47398414	     90.00000001	      0.00000000	      0.00000000	     -7.03547668	     -4.89165232	    -29.25689518	     37.23587848	     90.00000001	      0.00000000	      0.00000000
      2.50000000	      9.73195804	     -1.34627286	      1.66504395	      0.11488225	      0.90063683	      0.24352225	    -16.57432091	      1.52514229	     -5.66443806	     15.07665187	     10.59988717	      0.26313722	     22.46140669	     14.24391292	     -7.50790051	     21.82843463	      0.99574029	    -17.44108644	     22.89197836	     -4.36566183	      0.39954039	     12.19448519	     15.17732745	     -7.50790051	    -21.72877787	      7.57778037	     -1.94119554	     19.48859477	    -13.94357806	     -2.03378407	     36.03234872	     90.00000001	      0.00000000	      0.00000000	     -7.09027182	     -4.76435772	    -29.53619639	     36.96871615	     90.00000001	      0.00000000	      0.00000000
      2.51000000	      9.67220510	     -1.42343832	      1.81546697	      0.12230856	      0.89908603	      0.24274933	    -17.04048865	      1.66482881	     -5.41758366	     15.10063303	     10.57832597	      0.26355577	     22.79275635	     14.08915848	     -7.50783738	     22.18990509	      1.15510605	    -17.58476120	     22.78792594	     -4.38947306	      0.39772434	     12.13394059	     15.40621097	     -7.50783738	    -21.62183840	      7.72413257	     -2.08899208	     19.56646846	    -13.85466629	     -1.98857474	     36.31288056	     90.00000001	      0.00000000	      0.00000000	     -7.16201148	     -4.72433385	    -29.53133936	     36.60426106	     90.00000001	      0.00000000	      0.00000000
      2.52000000	      9.69604185	     -1.51483762	      1.80051465	      0.12999807	      0.89771433	      0.24226646	    -17.75753939	      1.81004118	     -4.42028066	     14.73300659	     10.68850313	      0.25713947	     22.85681548	     12.89004162	     -7.50747546	     22.49627313	      1.14025467	    -18.59337794	     23.00637637	     -4.66423542	      0.40153702	     12.42257538	     17.40594372	     -7.50747546	    -21.61762604	      7.81803327	     -1.94672215	     19.38295624	    -13.96725537	     -1.65702629	     36.86093402	     90.00000001	      0.00000000	      0.00000000	     -7.07811705	     -4.64217944	    -29.77912902	     36.05418513	     90.00000001	      0.00000000	      0.00000000
      2.53000000	      9.69498276	     -1.55010057	      1.90396675	      0.13776789	      0.89618468	      0.24153267	    -18.35522478	      1.88398959	     -4.15660552	     14.68216298	     10.69254732	      0.25625209	     23.16702599	     12.65363543	     -7.50738493	     22.71839535	      1.34715537	    -18.82238586	     23.27155105	     -4.81493543	      0.40616519	     12.41741310	     17.64051438	     -7.50738493	    -21.55046209	      7.87860800	     -1.99838072	     19.31190774	    -13.91517908	     -1.62230412	     37.10686717	     90.00000001	      0.00000000	      0.00000000	     -7.12007013	     -4.61924640	    -29.81462814	     35.65417159	     90.00000001	      0.00000000	      0.00000000
      2.54000000	      9.63181310	     -1.59258012	      1.92547610	      0.14569388	      0.89461192	      0.24092193	    -18.77362722	      1.94119320	     -3.98248483	     14.87697303	     10.65910584	      0.25965216	     23.16918754	     12.62988269	     -7.50736203	     22.79874921	      1.52339509	    -18.78853536	     23.41669042	     -4.79673702	      0.40869835	     12.39117416	     17.65497275	     -7.50736203	    -21.40705986	      7.90877303	     -1.97519533	     19.21421192	    -13.86541547	     -1.61303345	     37.16513564	     90.00000001	      0.00000000	      0.00000000	     -7.30497297	     -4.54596234	    -29.82058502	     35.53043961	     90.00000001	      0.00000000	      0.00000000
